<?xml version="1.0" encoding="UTF-8" standalone="no"?>
<svg
   xmlns:dc="http://purl.org/dc/elements/1.1/"
   xmlns:cc="http://creativecommons.org/ns#"
   xmlns:rdf="http://www.w3.org/1999/02/22-rdf-syntax-ns#"
   xmlns:svg="http://www.w3.org/2000/svg"
   xmlns="http://www.w3.org/2000/svg"
   xmlns:sodipodi="http://sodipodi.sourceforge.net/DTD/sodipodi-0.dtd"
   xmlns:inkscape="http://www.inkscape.org/namespaces/inkscape"
   viewBox="0 0 562 562"
   version="1.1"
   id="svg1139"
   sodipodi:docname="favicon.svg"
   inkscape:version="0.92.3 (2405546, 2018-03-11)"
   width="562"
   height="562"
   inkscape:export-filename="/home/hjacobs/workspace/kube-resource-report/templates/favicon.png"
   inkscape:export-xdpi="12"
   inkscape:export-ydpi="12">
  <metadata
     id="metadata1145">
    <rdf:RDF>
      <cc:Work
         rdf:about="">
        <dc:format>image/svg+xml</dc:format>
        <dc:type
           rdf:resource="http://purl.org/dc/dcmitype/StillImage" />
        <dc:title></dc:title>
      </cc:Work>
    </rdf:RDF>
  </metadata>
  <defs
     id="defs1143" />
  <sodipodi:namedview
     pagecolor="#ffffff"
     bordercolor="#666666"
     borderopacity="1"
     objecttolerance="10"
     gridtolerance="10"
     guidetolerance="10"
     inkscape:pageopacity="0"
     inkscape:pageshadow="2"
     inkscape:window-width="1920"
     inkscape:window-height="1151"
     id="namedview1141"
     showgrid="false"
     inkscape:zoom="0.921875"
     inkscape:cx="102.48184"
     inkscape:cy="263.64407"
     inkscape:window-x="0"
     inkscape:window-y="25"
     inkscape:window-maximized="1"
     inkscape:current-layer="svg1139"
     fit-margin-top="0"
     fit-margin-left="0"
     fit-margin-right="0"
     fit-margin-bottom="0" />
  <g
     id="g5457"
     transform="translate(64)">
    <path
       sodipodi:nodetypes="scsssssscssscccsccs"
       inkscape:connector-curvature="0"
       style="fill:#326ce5;fill-opacity:1;stroke:#ffffff;stroke-width:50;stroke-miterlimit:4;stroke-dasharray:none;stroke-opacity:1;paint-order:markers stroke fill"
       id="path1137"
       d="M 249,161 V 25 H 49 C 35.7,25 25,35.7 25,49 v 464 c 0,13.3 10.7,24 24,24 h 336 c 13.3,0 24,-10.7 24,-24 V 185 H 273 c -13.2,0 -24,-10.8 -24,-24 z M 409,146.9 V 153 H 281 V 25 h 6.1 c 6.4,0 12.5,2.5 17,7 l 97.9,98 c 4.5,4.5 7,10.6 7,16.9 z" />
    <path
       inkscape:export-ydpi="250.55"
       inkscape:export-xdpi="250.55"
       inkscape:export-filename="./path3059.png"
       sodipodi:nodetypes="ccccccccsccccscssccsccccccccscccsccccccccccccccscccscsccsccccscscsccccccccscccscsccccsccccscscscccccccccccccccscccsccccccccccccscccccscccccccccccccccccccccccscccscccccccccscccscccc"
       style="color:#000000;font-style:normal;font-variant:normal;font-weight:normal;font-stretch:normal;font-size:medium;line-height:normal;font-family:Sans;-inkscape-font-specification:Sans;text-indent:0;text-align:start;text-decoration:none;text-decoration-line:none;letter-spacing:normal;word-spacing:normal;text-transform:none;writing-mode:lr-tb;direction:ltr;baseline-shift:baseline;text-anchor:start;display:inline;overflow:visible;visibility:visible;fill:#ffffff;fill-opacity:1;stroke:#ffffff;stroke-width:0.15004975;stroke-miterlimit:4;stroke-dasharray:none;stroke-opacity:1;marker:none;enable-background:accumulate"
       d="m 216.99084,185.94436 c -4.84781,4.9e-4 -8.77851,4.36699 -8.77791,9.75323 0,0.0827 0.0168,0.16166 0.0186,0.24383 -0.007,0.73186 -0.0426,1.61355 -0.0186,2.25075 0.1156,3.10663 0.7928,5.48431 1.2004,8.34651 0.73836,6.12603 1.35711,11.20413 0.97532,15.92403 -0.37134,1.77983 -1.6823,3.40758 -2.85094,4.53901 l -0.20635,3.71373 c -5.26783,0.43645 -10.57089,1.23565 -15.86776,2.43831 -22.79233,5.17502 -42.41611,16.91545 -57.35652,32.76711 -0.96945,-0.66137 -2.6655,-1.8781 -3.16983,-2.25074 -1.56722,0.21164 -3.15117,0.6952 -5.21423,-0.50642 -3.92825,-2.64426 -7.50601,-6.29425 -11.83517,-10.69105 -1.98365,-2.10321 -3.42013,-4.10596 -5.77692,-6.13328 -0.53521,-0.46039 -1.35199,-1.08309 -1.95064,-1.55676 -1.84254,-1.46903 -4.01576,-2.23516 -6.11453,-2.30702 -2.69843,-0.0924 -5.29612,0.96263 -6.99607,3.09478 -3.02213,3.79048 -2.05455,9.584 2.15696,12.94179 0.0427,0.034 0.0883,0.0605 0.1313,0.0938 0.57872,0.46913 1.2874,1.07023 1.81935,1.46298 2.50095,1.84655 4.78551,2.7918 7.27741,4.25766 5.24994,3.24217 9.60221,5.93049 13.05433,9.1718 1.34806,1.43697 1.58367,3.96906 1.76309,5.06417 l 2.81343,2.51334 c -15.06105,22.66572 -22.03142,50.66247 -17.91216,79.18875 l -3.67622,1.06911 c -0.9689,1.25118 -2.33802,3.21991 -3.77003,3.80751 -4.51657,1.4226 -9.59972,1.945 -15.73647,2.58836 -2.88114,0.23957 -5.36708,0.0966 -8.42154,0.67522 -0.67227,0.12735 -1.60896,0.37139 -2.34452,0.54393 -0.0256,0.005 -0.0495,0.013 -0.075,0.0187 -0.0401,0.009 -0.0928,0.0288 -0.13129,0.0375 -5.1738,1.25009 -8.49746,6.00559 -7.42747,10.69104 1.07026,4.68656 6.12392,7.53657 11.32876,6.41463 0.0376,-0.009 0.0921,-0.01 0.13129,-0.0187 0.0588,-0.0134 0.11049,-0.042 0.16881,-0.0562 0.72555,-0.15927 1.6348,-0.33647 2.2695,-0.50642 3.003,-0.80405 5.17788,-1.98544 7.87761,-3.01975 5.80809,-2.08316 10.61856,-3.8234 15.30508,-4.50149 1.95736,-0.15331 4.0196,1.20769 5.04542,1.78184 l 3.82627,-0.65647 c 8.80503,27.29874 27.25753,49.36338 50.62303,63.20845 l -1.59428,3.82627 c 0.57465,1.48575 1.20845,3.49598 0.7804,4.96324 -1.70378,4.41819 -4.62212,9.08159 -7.94527,14.28064 -1.60904,2.40195 -3.2558,4.26598 -4.70781,7.01483 -0.34746,0.65775 -0.78997,1.66814 -1.12537,2.36328 -2.25606,4.82702 -0.60119,10.38657 3.73248,12.47289 4.3609,2.09942 9.77393,-0.11484 12.11652,-4.95164 0.004,-0.007 0.0154,-0.0119 0.0187,-0.0187 0.002,-0.005 -0.002,-0.0135 0,-0.0187 0.33366,-0.68575 0.80638,-1.58714 1.08786,-2.23199 1.24369,-2.84915 1.65751,-5.29079 2.53209,-8.04641 2.32254,-5.83402 3.59859,-11.95539 6.7958,-15.7697 0.8755,-1.04448 2.30285,-1.44618 3.7827,-1.84239 l 1.98816,-3.6012 c 20.36968,7.81868 43.17034,9.91677 65.94687,4.74533 5.19592,-1.17974 10.21202,-2.70657 15.06127,-4.53901 0.55873,0.99113 1.59719,2.89638 1.87562,3.37612 1.5038,0.48927 3.14528,0.74193 4.48271,2.71965 2.39203,4.08675 4.02787,8.92146 6.02077,14.76115 0.87467,2.75558 1.307,5.19732 2.55085,8.04641 0.28347,0.64939 0.75385,1.56344 1.08786,2.25075 2.33766,4.85251 7.76784,7.07435 12.13524,4.9704 4.33314,-2.08743 5.98981,-7.64648 3.73252,-12.47289 -0.33545,-0.69511 -0.79664,-1.70555 -1.14416,-2.36328 -1.45218,-2.74877 -3.09865,-4.59421 -4.70778,-6.99607 -3.32348,-5.19888 -6.07983,-9.51778 -7.78386,-13.93587 -0.7125,-2.2787 0.12022,-3.69587 0.67522,-5.17672 -0.33239,-0.38099 -1.04362,-2.53289 -1.46298,-3.54492 24.28249,-14.33765 42.19315,-37.22512 50.60428,-63.65861 1.13581,0.17851 3.10993,0.52779 3.75124,0.65647 1.32014,-0.87071 2.53398,-2.00678 4.91413,-1.81935 4.68653,0.67784 9.49689,2.41864 15.30507,4.50149 2.69982,1.03418 4.87458,2.23462 7.87762,3.03851 0.63471,0.16991 1.54395,0.32843 2.26953,0.48766 0.0582,0.0143 0.11001,0.0428 0.16877,0.0562 0.039,0.009 0.0938,0.0101 0.13133,0.0187 5.2051,1.12054 10.25968,-1.7278 11.32875,-6.41462 1.06878,-4.68573 -2.25332,-9.44234 -7.42746,-10.69105 -0.75265,-0.17113 -1.81998,-0.46178 -2.55084,-0.6002 -3.05454,-0.57846 -5.54044,-0.4358 -8.42158,-0.67522 -6.13679,-0.64304 -11.21982,-1.166 -15.73643,-2.58836 -1.84159,-0.7144 -3.15171,-2.90571 -3.78882,-3.80751 l -3.5449,-1.03159 c 1.83793,-13.29706 1.34235,-27.1358 -1.8381,-40.98234 -3.21011,-13.97546 -8.88319,-26.75738 -16.44924,-38.01886 0.90936,-0.82664 2.62659,-2.34732 3.11353,-2.79467 0.14237,-1.57503 0.0198,-3.22639 1.65055,-4.9704 3.45193,-3.24149 7.80457,-5.92935 13.05433,-9.17179 2.49185,-1.466 4.79529,-2.41099 7.2962,-4.25766 0.56551,-0.4176 1.33778,-1.07891 1.93186,-1.55677 4.21063,-3.35891 5.18008,-9.15209 2.15699,-12.94179 -3.02314,-3.78971 -8.88126,-4.14667 -13.09184,-0.78776 -0.59936,0.47467 -1.41262,1.09387 -1.95064,1.55677 -2.35668,2.02744 -3.81217,4.02997 -5.7957,6.13328 -4.32894,4.39703 -7.90709,8.06533 -11.83515,10.7098 -1.70222,0.99096 -4.19539,0.64808 -5.32682,0.58144 l -3.33861,2.38204 c -19.03759,-19.96296 -44.95773,-32.72613 -72.86776,-35.20545 -0.0781,-1.16962 -0.18036,-3.28379 -0.20635,-3.92005 -1.1426,-1.09335 -2.52288,-2.02679 -2.86967,-4.38896 -0.38185,-4.7199 0.25562,-9.798 0.99405,-15.92403 0.40759,-2.8622 1.0848,-5.23988 1.2004,-8.34651 0.0264,-0.70621 -0.0156,-1.73098 -0.0186,-2.49458 0,-5.38624 -3.9301,-9.75372 -8.77791,-9.75323 z m -10.99114,68.08507 -2.60715,46.04652 -0.18756,0.0938 c -0.17484,4.11937 -3.56518,7.4087 -7.72756,7.4087 -1.70505,0 -3.27883,-0.54755 -4.55773,-1.48174 l -0.075,0.0375 -37.7563,-26.76513 c 11.60404,-11.41047 26.44652,-19.84281 43.55194,-23.72661 3.12464,-0.70946 6.2479,-1.23587 9.35939,-1.61304 z m 22.00101,0 c 19.97072,2.45621 38.43975,11.49911 52.59244,25.35841 l -37.51244,26.59632 -0.13126,-0.0562 c -3.32961,2.43182 -8.02076,1.82844 -10.61602,-1.42548 -1.06319,-1.33301 -1.62102,-2.90039 -1.68806,-4.48273 l -0.0372,-0.0187 z m -88.60437,42.5391 34.47392,30.83523 -0.0375,0.18756 c 3.11166,2.70508 3.57051,7.39922 0.97533,10.65353 -1.06308,1.33307 -2.48608,2.22718 -4.01384,2.64463 l -0.0375,0.15005 -44.18965,12.75423 c -2.24911,-20.56592 2.59799,-40.55763 12.82926,-57.22523 z m 154.94515,0.0187 c 5.12215,8.30229 9.00088,17.57511 11.30997,27.62791 2.28141,9.93226 2.85394,19.84676 1.91313,29.42851 l -44.41473,-12.79174 -0.0372,-0.18757 c -3.97722,-1.08698 -6.42147,-5.13267 -5.49554,-9.19054 0.37933,-1.66233 1.26174,-3.0686 2.45703,-4.10761 l -0.0186,-0.0938 34.28637,-30.68517 z m -84.42177,33.19851 h 14.12346 l 8.77791,10.97239 -3.15105,13.69203 -12.6792,6.09578 -12.71672,-6.11453 -3.15104,-13.69204 z m 45.27751,37.54995 c 0.6002,-0.0303 1.19776,0.0238 1.78187,0.13129 l 0.075,-0.0938 45.70888,7.72756 c -6.68952,18.79409 -19.49014,35.07574 -36.59335,45.97149 l -17.74339,-42.85796 0.0564,-0.075 c -1.62996,-3.78725 0,-8.22847 3.75125,-10.03458 0.96007,-0.4624 1.96313,-0.71844 2.96348,-0.769 z m -76.7692,0.18756 c 3.4882,0.0489 6.61698,2.46997 7.42749,6.02075 0.37938,1.66229 0.19476,3.30934 -0.43142,4.76407 l 0.13132,0.16881 -17.55585,42.42657 c -16.41374,-10.53263 -29.48734,-26.30311 -36.48085,-45.65258 l 45.31503,-7.69005 0.075,0.0938 c 0.50688,-0.0933 1.02094,-0.13828 1.51926,-0.13129 z m 38.28144,18.58744 c 1.2151,-0.0446 2.44803,0.20466 3.61998,0.76901 1.53621,0.73976 2.72292,1.90454 3.46987,3.30109 h 0.16883 l 22.33863,40.36338 c -2.89914,0.97186 -5.87961,1.80245 -8.92796,2.49458 -17.08436,3.87903 -34.11447,2.7037 -49.53514,-2.55085 l 22.28238,-40.28835 h 0.0372 c 1.337,-2.49948 3.87272,-3.99065 6.54589,-4.08886 z"
       id="path3059"
       inkscape:connector-curvature="0" />
  </g>
</svg>
